<?xml version="1.0" encoding="iso-8859-1"?>
<!-- Generator: Adobe Illustrator 19.0.0, SVG Export Plug-In . SVG Version: 6.00 Build 0)  -->
<svg version="1.1" id="Layer_1" xmlns="http://www.w3.org/2000/svg" xmlns:xlink="http://www.w3.org/1999/xlink" x="0px" y="0px"
	 viewBox="0 0 512 512" style="enable-background:new 0 0 512 512;" xml:space="preserve">
<polygon style="fill:#BFBFBF;" points="33.391,77.913 33.391,300.522 33.391,346.899 33.391,500.87 478.609,500.87 478.609,346.899 
	478.609,300.522 478.609,77.913 "/>
<g>
	<rect x="200.348" y="144.696" style="fill:#D68A5F;" width="111.304" height="44.522"/>
	<rect x="200.348" y="389.565" style="fill:#D68A5F;" width="111.304" height="44.522"/>
</g>
<g>
	<rect x="33.391" y="267.13" style="fill:#456173;" width="445.217" height="44.522"/>
	<rect x="11.13" y="11.13" style="fill:#456173;" width="489.739" height="66.783"/>
</g>
<path d="M500.87,0H11.13C4.983,0,0,4.983,0,11.13v66.783c0,6.147,4.983,11.13,11.13,11.13h11.13V267.13v44.522V500.87
	c0,6.147,4.983,11.13,11.13,11.13h445.217c6.146,0,11.13-4.983,11.13-11.13V311.652V267.13V89.043h11.13
	c6.146,0,11.13-4.983,11.13-11.13V11.13C512,4.983,507.016,0,500.87,0z M44.522,489.739V322.783h422.957v166.957H44.522z
	 M467.478,256H144.696c-6.147,0-11.13,4.983-11.13,11.13s4.983,11.13,11.13,11.13h322.783v22.261H44.522v-22.261h33.391
	c6.147,0,11.13-4.983,11.13-11.13S84.06,256,77.913,256H44.522V89.043h422.957V256z M489.739,66.783h-11.13H33.391h-11.13V22.261
	h467.478V66.783z"/>
<path d="M105.127,276.38c0.601,0.401,1.247,0.746,1.914,1.024c0.679,0.278,1.38,0.501,2.093,0.634
	c0.712,0.145,1.447,0.223,2.17,0.223c0.723,0,1.458-0.078,2.17-0.223c0.712-0.134,1.414-0.356,2.081-0.634
	c0.679-0.278,1.325-0.623,1.926-1.024c0.612-0.401,1.18-0.868,1.692-1.38c2.07-2.07,3.261-4.942,3.261-7.869
	c0-0.723-0.078-1.458-0.223-2.17c-0.134-0.712-0.356-1.414-0.634-2.081c-0.278-0.679-0.623-1.325-1.024-1.926
	c-0.401-0.612-0.868-1.18-1.38-1.692c-0.512-0.512-1.08-0.979-1.692-1.38c-0.601-0.401-1.247-0.746-1.926-1.024
	c-0.668-0.278-1.369-0.501-2.081-0.634c-1.436-0.289-2.905-0.289-4.341,0c-0.712,0.134-1.414,0.356-2.093,0.634
	c-0.668,0.278-1.313,0.623-1.914,1.024c-0.612,0.401-1.18,0.868-1.692,1.38c-0.512,0.512-0.979,1.08-1.38,1.692
	c-0.401,0.601-0.746,1.247-1.024,1.926c-0.278,0.668-0.501,1.369-0.634,2.081c-0.145,0.712-0.223,1.447-0.223,2.17
	c0,2.927,1.191,5.799,3.261,7.869C103.947,275.512,104.515,275.979,105.127,276.38z"/>
<path d="M200.348,200.348h111.304c6.146,0,11.13-4.983,11.13-11.13v-44.522c0-6.147-4.984-11.13-11.13-11.13H200.348
	c-6.147,0-11.13,4.983-11.13,11.13v44.522C189.217,195.365,194.2,200.348,200.348,200.348z M211.478,155.826h89.043v22.261h-89.043
	V155.826z"/>
<path d="M311.652,378.435H200.348c-6.147,0-11.13,4.983-11.13,11.13v44.522c0,6.147,4.983,11.13,11.13,11.13h111.304
	c6.146,0,11.13-4.983,11.13-11.13v-44.522C322.783,383.418,317.798,378.435,311.652,378.435z M300.522,422.957h-89.043v-22.261
	h89.043V422.957z"/>
<g>
</g>
<g>
</g>
<g>
</g>
<g>
</g>
<g>
</g>
<g>
</g>
<g>
</g>
<g>
</g>
<g>
</g>
<g>
</g>
<g>
</g>
<g>
</g>
<g>
</g>
<g>
</g>
<g>
</g>
</svg>
