<?xml version="1.0" encoding="iso-8859-1"?>
<!-- Generator: Adobe Illustrator 19.0.0, SVG Export Plug-In . SVG Version: 6.00 Build 0)  -->
<svg version="1.1" id="Layer_1" xmlns="http://www.w3.org/2000/svg" xmlns:xlink="http://www.w3.org/1999/xlink" x="0px" y="0px"
	 viewBox="0 0 511.999 511.999" style="enable-background:new 0 0 511.999 511.999;" xml:space="preserve">
<g>
	<circle style="fill:#FFD960;" cx="341.239" cy="72.717" r="64.621"/>
	<circle style="fill:#FFD960;" cx="168.536" cy="72.717" r="64.623"/>
</g>
<g>
	<circle style="fill:#F5F5F5;" cx="341.239" cy="72.717" r="25.626"/>
	<circle style="fill:#F5F5F5;" cx="168.536" cy="72.717" r="25.626"/>
</g>
<path style="fill:#59C384;" d="M350.424,351.181v-62.744c0-52.149-42.273-94.426-94.426-94.426
	c-52.151,0-94.426,42.277-94.426,94.426v158.644h-48.467c-11.076,0-20.054,8.978-20.054,20.056v16.712
	c0,11.076,8.978,20.054,20.054,20.054h285.785c11.076,0,20.055-8.978,20.055-20.054v-16.712c0-11.077-8.978-20.056-20.055-20.056
	h-48.467v-69.993"/>
<g style="opacity:0.2;">
	<path style="fill:#231F20;" d="M301.981,72.718c0-31.347,22.323-57.474,51.936-63.37c-4.102-0.817-8.343-1.252-12.685-1.252
		c-35.69,0-64.621,28.933-64.621,64.622c0,35.69,28.931,64.623,64.621,64.623c4.342,0,8.582-0.435,12.685-1.252
		C324.304,130.195,301.981,104.066,301.981,72.718z"/>
</g>
<g style="opacity:0.2;">
	<path style="fill:#231F20;" d="M129.283,72.718c0-31.347,22.325-57.474,51.939-63.37c-4.102-0.816-8.343-1.252-12.685-1.252
		c-35.689,0-64.623,28.933-64.623,64.622c0,35.69,28.935,64.623,64.623,64.623c4.342,0,8.582-0.435,12.685-1.252
		C151.606,130.195,129.283,104.066,129.283,72.718z"/>
</g>
<g style="opacity:0.2;">
	<path style="fill:#231F20;" d="M255.999,194.012c-52.151,0-94.426,42.277-94.426,94.426v166.201h3.166
		c6.801-0.303,22.203-2.753,22.203-18.735V288.437c0-47.847,35.59-87.377,81.741-93.575
		C264.534,194.305,260.301,194.012,255.999,194.012z"/>
</g>
<g>
	<path style="fill:#231F20;" d="M398.892,438.985h-40.37V377.09c0-4.471-3.625-8.097-8.096-8.097c-4.473,0-8.096,3.625-8.096,8.097
		v69.992c0,4.471,3.624,8.096,8.096,8.096h48.467c6.594,0,11.958,5.365,11.958,11.959v16.712c0,6.594-5.364,11.958-11.958,11.958
		H113.107c-6.594,0-11.958-5.364-11.958-11.958v-16.712c0-6.594,5.364-11.959,11.958-11.959h48.467c4.473,0,8.096-3.625,8.096-8.096
		V288.437c0-47.602,38.727-86.329,86.329-86.329s86.329,38.727,86.329,86.329v62.744c0,4.471,3.624,8.096,8.096,8.096
		c4.471,0,8.096-3.625,8.096-8.096v-62.744c0-39.934-22.953-74.604-56.357-91.522l20.695-53.833
		c5.872,1.535,12.029,2.357,18.375,2.357c40.097,0,72.717-32.622,72.717-72.72C413.951,32.621,381.33,0,341.234,0
		s-72.717,32.621-72.717,72.718c0,28.029,15.949,52.388,39.239,64.523l-20.577,53.527c-9.837-3.148-20.311-4.854-31.179-4.854
		c-11.199,0-21.981,1.811-32.077,5.145l-21.343-54.107c22.985-12.231,38.678-36.43,38.678-64.233
		C241.255,32.621,208.635,0,168.537,0c-40.097,0-72.72,32.621-72.72,72.718c0,40.098,32.622,72.72,72.72,72.72
		c6.568,0,12.928-0.891,18.985-2.53l21.473,54.435c-32.948,17.071-55.517,51.495-55.517,91.093v150.547h-40.37
		c-15.523,0-28.151,12.629-28.151,28.152v16.712c0,15.523,12.628,28.151,28.151,28.151h285.785
		c15.523,0,28.151-12.628,28.151-28.151v-16.712C427.043,451.613,414.414,438.985,398.892,438.985z M284.709,72.718
		c0-31.168,25.356-56.525,56.524-56.525s56.524,25.357,56.524,56.525c0,31.169-25.356,56.527-56.524,56.527
		C310.066,129.246,284.709,103.888,284.709,72.718z M112.01,72.718c0-31.168,25.357-56.525,56.527-56.525
		c31.168,0,56.525,25.357,56.525,56.525c0,31.169-25.357,56.527-56.525,56.527C137.367,129.246,112.01,103.888,112.01,72.718z"/>
	<path style="fill:#231F20;" d="M374.956,72.717c0-18.594-15.129-33.721-33.722-33.721c-18.594,0-33.722,15.128-33.722,33.721
		s15.129,33.721,33.722,33.721C359.828,106.439,374.956,91.311,374.956,72.717z M323.703,72.717c0-9.665,7.863-17.528,17.529-17.528
		c9.666,0,17.529,7.863,17.529,17.528s-7.863,17.528-17.529,17.528C331.567,90.246,323.703,82.382,323.703,72.717z"/>
	<path style="fill:#231F20;" d="M168.539,38.996c-18.596,0-33.724,15.128-33.724,33.721s15.129,33.721,33.724,33.721
		c18.594,0,33.72-15.128,33.72-33.721S187.133,38.996,168.539,38.996z M168.539,90.247c-9.666,0-17.531-7.863-17.531-17.528
		s7.864-17.528,17.531-17.528c9.665,0,17.527,7.863,17.527,17.528S178.204,90.247,168.539,90.247z"/>
	<path style="fill:#231F20;" d="M283.558,301.125c0,15.194-12.363,27.555-27.558,27.555c-15.194,0-27.555-12.362-27.555-27.555
		c0-4.471-3.624-8.096-8.096-8.096c-4.473,0-8.096,3.625-8.096,8.096c0,24.123,19.626,43.748,43.748,43.748
		c24.125,0,43.751-19.626,43.751-43.748c0-4.471-3.624-8.096-8.096-8.096C287.182,293.029,283.558,296.654,283.558,301.125z"/>
</g>
<g>
</g>
<g>
</g>
<g>
</g>
<g>
</g>
<g>
</g>
<g>
</g>
<g>
</g>
<g>
</g>
<g>
</g>
<g>
</g>
<g>
</g>
<g>
</g>
<g>
</g>
<g>
</g>
<g>
</g>
</svg>
