<?xml version="1.0" encoding="iso-8859-1"?>
<!-- Generator: Adobe Illustrator 19.1.0, SVG Export Plug-In . SVG Version: 6.00 Build 0)  -->
<svg version="1.1" id="Capa_1" xmlns="http://www.w3.org/2000/svg" xmlns:xlink="http://www.w3.org/1999/xlink" x="0px" y="0px"
	 viewBox="0 0 298.167 298.167" style="enable-background:new 0 0 298.167 298.167;" xml:space="preserve">
<g>
	<path style="fill:#FFFFFF;" d="M147.833,147.083v101h16v-76c0-4.418,3.915-8,8.333-8h69c4.418,0,7.667,3.582,7.667,8v76h17v-101
		H147.833z"/>
	<path style="fill:#FFFFFF;" d="M58.833,199.083c0-4.418,3.915-8,8.333-8h31c4.418,0,7.667,3.582,7.667,8v49h26v-101h-99v101h26
		V199.083z M107.834,164.583c4.418,0,8,3.582,8,8s-3.582,8-8,8c-4.418,0-8-3.582-8-8S103.415,164.583,107.834,164.583z
		 M48.833,172.583c0-4.418,3.582-8,8-8s8,3.582,8,8s-3.582,8-8,8S48.833,177.001,48.833,172.583z"/>
	<path style="fill:#C52D2F;" d="M160.408,131.083h111.231l-39.806-43.327v5.327c0,4.418-3.249,8-7.667,8h-33
		c-4.418,0-8.333-3.582-8.333-8v-26h-81.758L160.408,131.083z"/>
	<polygon style="fill:#C52D2F;" points="138.589,131.083 82.749,70.851 26.909,131.083 	"/>
	<path d="M289.75,147.083c0.01-0.002,0.014,0,0.019,0c4.419,0,8-3.582,8-8c0-2.25-0.929-4.284-2.424-5.737l-61.062-67.024
		c8.241-2.082,14.869-8.262,17.571-16.238h21.313c13.785,0,25-11.215,25-25s-11.215-25-25-25h-41c-10.988,0-20.344,7.127-23.688,17
		h-21.312c-13.785,0-25,11.215-25,25c0,3.172,0.601,6.205,1.683,9h-81.1c-0.066,0-0.131,0.009-0.196,0.01
		c-0.16,0.004-0.319,0.012-0.478,0.025c-0.107,0.009-0.215,0.021-0.321,0.033c-0.162,0.021-0.322,0.047-0.483,0.076
		c-0.1,0.02-0.198,0.039-0.297,0.061c-0.167,0.038-0.332,0.083-0.496,0.131c-0.09,0.027-0.18,0.053-0.268,0.083
		c-0.167,0.056-0.332,0.12-0.497,0.188c-0.084,0.034-0.167,0.067-0.25,0.104c-0.159,0.072-0.315,0.152-0.471,0.235
		c-0.085,0.045-0.17,0.089-0.254,0.137c-0.141,0.082-0.278,0.173-0.416,0.264c-0.093,0.062-0.186,0.122-0.276,0.188
		c-0.119,0.086-0.233,0.181-0.349,0.274c-0.101,0.082-0.201,0.163-0.298,0.249c-0.028,0.026-0.06,0.048-0.088,0.074
		c-0.079,0.073-0.147,0.152-0.223,0.229c-0.067,0.068-0.141,0.129-0.206,0.2l-74.166,80c-2.162,2.332-2.737,5.725-1.465,8.639
		c1.272,2.915,4.151,4.8,7.332,4.8h8.25v102.32C6.833,252.748,0,262.096,0,273.083c0,13.785,11.381,25,25.167,25h247
		c13.785,0,24.833-11.215,24.833-25c0-10.23-6.167-19.041-15.167-22.906V147.083H289.75z M272.167,282.083h-247
		c-4.963,0-9-4.037-9-9s4.037-9,9-9h247c4.963,0,9,4.037,9,9S277.129,282.083,272.167,282.083z M187.167,33.083h4h24
		c4.418,0,8-3.582,8-8c0-4.963,4.037-9,9-9h41c4.963,0,9,4.037,9,9s-4.037,9-9,9h-28c-4.418,0-8,3.582-8,8c0,4.963-4.037,9-9,9
		h-11.3h-29.7c-4.963,0-9-4.037-9-9S182.204,33.083,187.167,33.083z M89.834,248.083h-15v-41h15V248.083z M232.833,248.083h-53v-68
		h53V248.083z M138.589,131.083H26.909l55.841-60.232L138.589,131.083z M198.833,67.083h14.499h2.501v18h-17V67.083z
		 M182.833,67.083v26c0,4.418,3.915,8,8.333,8h33c4.418,0,7.667-3.582,7.667-8v-5.327l39.806,43.327H160.408l-59.332-64H182.833z
		 M32.833,147.083h99v101h-26v-49c0-4.418-3.249-8-7.667-8h-31c-4.418,0-8.333,3.582-8.333,8v49h-26V147.083z M265.833,248.083h-17
		v-76c0-4.418-3.249-8-7.667-8h-69c-4.418,0-8.333,3.582-8.333,8v76h-16v-101h118V248.083z"/>
	<rect x="179.833" y="180.083" style="fill:#9696A0;" width="53" height="68"/>
	<rect x="74.834" y="207.083" style="fill:#A05200;" width="15" height="41"/>
	<circle cx="56.833" cy="172.583" r="8"/>
	<circle cx="107.834" cy="172.583" r="8"/>
	<polygon style="fill:#A05200;" points="215.833,67.083 213.333,67.083 198.833,67.083 198.833,85.083 215.833,85.083 	"/>
	<path style="fill:#A9BD34;" d="M272.167,264.083h-247c-4.963,0-9,4.037-9,9s4.037,9,9,9h247c4.963,0,9-4.037,9-9
		S277.129,264.083,272.167,264.083z"/>
	<path style="fill:#C8F1DE;" d="M187.167,51.083h29.7h11.3c4.963,0,9-4.037,9-9c0-4.418,3.582-8,8-8h28c4.963,0,9-4.037,9-9
		s-4.037-9-9-9h-41c-4.963,0-9,4.037-9,9c0,4.418-3.582,8-8,8h-24h-4c-4.963,0-9,4.037-9,9S182.204,51.083,187.167,51.083z"/>
</g>
<g>
</g>
<g>
</g>
<g>
</g>
<g>
</g>
<g>
</g>
<g>
</g>
<g>
</g>
<g>
</g>
<g>
</g>
<g>
</g>
<g>
</g>
<g>
</g>
<g>
</g>
<g>
</g>
<g>
</g>
</svg>
