<?xml version="1.0" encoding="iso-8859-1"?>
<!-- Generator: Adobe Illustrator 19.0.0, SVG Export Plug-In . SVG Version: 6.00 Build 0)  -->
<svg version="1.1" id="Layer_1" xmlns="http://www.w3.org/2000/svg" xmlns:xlink="http://www.w3.org/1999/xlink" x="0px" y="0px"
	 viewBox="0 0 511.999 511.999" style="enable-background:new 0 0 511.999 511.999;" xml:space="preserve">
<rect x="10.199" y="67.458" style="fill:#FFE6B8;" width="377.075" height="377.075"/>
<path style="fill:#D35B38;" d="M496.297,89.587L484.91,78.199c-7.337-7.337-19.234-7.337-26.571,0l-35.302,35.302l37.959,37.959
	l35.302-35.302C503.636,108.82,503.636,96.924,496.297,89.587z"/>
<polygon style="fill:#FFAD61;" points="423.036,113.501 197.559,338.979 178.579,395.918 235.518,376.938 460.996,151.46 "/>
<g>
	<path style="fill:#4D3D36;" d="M397.473,124.639V67.463c0-5.632-4.567-10.199-10.199-10.199H10.199C4.566,57.263,0,61.831,0,67.463
		v377.074c0,5.632,4.566,10.199,10.199,10.199h377.075c5.632,0,10.199-4.567,10.199-10.199l-0.004-215.126l106.04-106.041
		c5.475-5.475,8.49-12.755,8.49-20.498s-3.015-15.022-8.49-20.496l-11.386-11.388c-5.475-5.475-12.755-8.49-20.498-8.49
		s-15.022,3.015-20.498,8.49L397.473,124.639z M230.008,368.024l-35.304,11.767l11.768-35.304l216.563-216.563l23.536,23.536
		L230.008,368.024z M377.075,434.337H20.398V77.663h356.676v67.376L190.347,331.766c-1.12,1.12-1.963,2.486-2.464,3.987
		l-18.98,56.939c-1.222,3.665-0.268,7.705,2.464,10.437c1.944,1.944,4.551,2.987,7.214,2.987c1.079,0,2.167-0.171,3.224-0.523
		l56.939-18.979c1.502-0.501,2.867-1.344,3.987-2.464l134.344-134.344V434.337z M489.085,108.945l-28.09,28.091l-11.768-11.768
		L437.46,113.5l28.091-28.091c1.623-1.623,3.779-2.516,6.074-2.516s4.451,0.893,6.074,2.515l11.387,11.388
		c0,0.001,0,0.001,0.001,0.001c1.622,1.623,2.515,3.779,2.515,6.073C491.602,105.166,490.708,107.323,489.085,108.945z"/>
	<path style="fill:#4D3D36;" d="M308.401,141.408h9.724c5.632,0,10.199-4.567,10.199-10.199s-4.567-10.199-10.199-10.199h-9.724
		c-5.632,0-10.199,4.567-10.199,10.199S302.768,141.408,308.401,141.408z"/>
	<path style="fill:#4D3D36;" d="M78.267,141.408h185.837c5.632,0,10.199-4.567,10.199-10.199s-4.567-10.199-10.199-10.199H78.267
		c-5.633,0-10.199,4.567-10.199,10.199S72.634,141.408,78.267,141.408z"/>
	<path style="fill:#4D3D36;" d="M78.267,200.833h176.113c5.632,0,10.199-4.567,10.199-10.199c0-5.632-4.567-10.199-10.199-10.199
		H78.267c-5.633,0-10.199,4.567-10.199,10.199C68.067,196.265,72.634,200.833,78.267,200.833z"/>
	<path style="fill:#4D3D36;" d="M78.267,260.257h112.367c5.633,0,10.199-4.567,10.199-10.199s-4.566-10.199-10.199-10.199H78.267
		c-5.633,0-10.199,4.567-10.199,10.199S72.634,260.257,78.267,260.257z"/>
	<path style="fill:#4D3D36;" d="M142.014,298.202H78.267c-5.633,0-10.199,4.567-10.199,10.199c0,5.632,4.566,10.199,10.199,10.199
		h63.746c5.633,0,10.199-4.567,10.199-10.199C152.212,302.769,147.647,298.202,142.014,298.202z"/>
</g>
<g>
</g>
<g>
</g>
<g>
</g>
<g>
</g>
<g>
</g>
<g>
</g>
<g>
</g>
<g>
</g>
<g>
</g>
<g>
</g>
<g>
</g>
<g>
</g>
<g>
</g>
<g>
</g>
<g>
</g>
</svg>
