<?xml version="1.0" encoding="iso-8859-1"?>
<!-- Generator: Adobe Illustrator 19.1.0, SVG Export Plug-In . SVG Version: 6.00 Build 0)  -->
<svg version="1.1" id="Capa_1" xmlns="http://www.w3.org/2000/svg" xmlns:xlink="http://www.w3.org/1999/xlink" x="0px" y="0px"
	 viewBox="0 0 455.88 455.88" style="enable-background:new 0 0 455.88 455.88;" xml:space="preserve">
<g>
	<path d="M408.68,180.74c4.14,0,7.5,3.36,7.5,7.5s-3.36,7.5-7.5,7.5h-42c-4.15,0-7.5-3.36-7.5-7.5s3.35-7.5,7.5-7.5H408.68z"/>
	<path d="M390.96,94.12c2.07,3.59,0.84,8.17-2.74,10.25l-36.36,20.99c-1.18,0.68-2.47,1-3.75,1c-2.59,0-5.11-1.34-6.5-3.75
		c-2.07-3.59-0.84-8.17,2.75-10.24l36.36-20.99C384.3,89.3,388.89,90.53,390.96,94.12z"/>
	<path d="M388.22,272.12c3.58,2.07,4.81,6.65,2.74,10.24c-1.39,2.41-3.91,3.75-6.5,3.75c-1.27,0-2.56-0.32-3.74-1l-36.36-20.99
		c-3.59-2.08-4.82-6.66-2.75-10.25c2.07-3.59,6.66-4.82,10.25-2.74L388.22,272.12z"/>
	<path d="M344.93,186.93c0,25.74-8.2,50.17-23.72,70.63c-26.18,34.53-39.87,74.88-39.87,116.68v45.24c0,20.07-16.33,36.4-36.4,36.4
		h-33.85c-20.07,0-36.4-16.33-36.4-36.4v-45.24c0-41.35-14.17-82.72-39.89-116.5c-15.84-20.8-24.09-45.66-23.85-71.89
		c0.27-30.6,12.4-59.48,34.14-81.34c21.74-21.85,50.57-34.13,81.16-34.56c31.56-0.46,61.35,11.51,83.82,33.67
		C332.55,125.78,344.93,155.37,344.93,186.93z M309.26,248.49c13.52-17.83,20.67-39.12,20.67-61.56c0-27.51-10.79-53.31-30.39-72.63
		c-19.59-19.32-45.53-29.72-73.08-29.35c-54.93,0.77-100.02,46.1-100.51,101.03c-0.21,22.87,6.98,44.54,20.79,62.68
		c27.11,35.6,42.3,79.09,42.93,122.76h76.53C266.81,327.33,281.67,284.88,309.26,248.49z M266.34,419.48v-2.37l-76.65-8.78v6.07
		l76.31,8.74C266.21,421.95,266.34,420.73,266.34,419.48z M266.34,402.01v-15.59h-76.65v6.81L266.34,402.01z M256.92,437.2
		l-64.57-7.4c3.65,6.6,10.68,11.08,18.74,11.08h33.85C249.38,440.88,253.5,439.52,256.92,437.2z"/>
	<path d="M322.06,25.22c3.58,2.07,4.81,6.65,2.74,10.24l-20.99,36.36c-1.39,2.41-3.91,3.75-6.5,3.75c-1.27,0-2.56-0.32-3.74-1
		c-3.59-2.07-4.82-6.66-2.75-10.25l20.99-36.36C313.88,24.37,318.47,23.14,322.06,25.22z"/>
	<path d="M317.93,186.93c0,2.81-0.13,5.64-0.38,8.41c-0.36,3.9-3.63,6.82-7.46,6.82c-0.23,0-0.46-0.01-0.7-0.03
		c-4.12-0.38-7.16-4.03-6.78-8.16c0.21-2.32,0.32-4.69,0.32-7.04c0-41.35-33.64-74.99-74.99-74.99c-4.14,0-7.5-3.36-7.5-7.5
		s3.36-7.5,7.5-7.5C277.56,96.94,317.93,137.31,317.93,186.93z"/>
	<path d="M306.74,212.61c3.81,1.64,5.56,6.05,3.92,9.86c-2.85,6.63-6.54,12.94-10.96,18.77c-1.47,1.95-3.71,2.97-5.98,2.97
		c-1.58,0-3.17-0.5-4.53-1.52c-3.3-2.51-3.94-7.21-1.44-10.51c3.69-4.87,6.76-10.13,9.14-15.65
		C298.53,212.73,302.94,210.97,306.74,212.61z"/>
	<path style="fill:#3DD0F2;" d="M266.34,417.11v2.37c0,1.25-0.13,2.47-0.34,3.66l-76.31-8.74v-6.07L266.34,417.11z"/>
	<polygon style="fill:#3DD0F2;" points="266.34,386.42 266.34,402.01 189.69,393.23 189.69,386.42 	"/>
	<path style="fill:#3DD0F2;" d="M192.35,429.8l64.57,7.4c-3.42,2.32-7.54,3.68-11.98,3.68h-33.85
		C203.03,440.88,196,436.4,192.35,429.8z"/>
	<path d="M235.44,7.5v42c0,4.14-3.36,7.5-7.5,7.5c-4.15,0-7.5-3.36-7.5-7.5v-42c0-4.14,3.35-7.5,7.5-7.5
		C232.08,0,235.44,3.36,235.44,7.5z"/>
	<path d="M205.04,302.29c1.29,3.94-0.85,8.17-4.79,9.47c-0.77,0.25-1.56,0.38-2.34,0.38c-3.15,0-6.09-2.01-7.12-5.16
		c-7.79-23.69-19.4-45.76-34.51-65.59c-3.19-4.19-6.02-8.66-8.41-13.28c-1.9-3.68-0.46-8.21,3.22-10.11
		c3.68-1.9,8.21-0.46,10.11,3.22c1.99,3.85,4.35,7.58,7.02,11.08C184.34,253.46,196.72,277.01,205.04,302.29z"/>
	<path d="M165.05,64.32c2.07,3.59,0.84,8.18-2.74,10.25c-1.18,0.68-2.47,1-3.75,1c-2.59,0-5.11-1.34-6.5-3.75l-20.99-36.36
		c-2.07-3.59-0.84-8.17,2.75-10.24c3.58-2.08,8.17-0.85,10.24,2.74L165.05,64.32z"/>
	<path d="M153.77,198.21c0.61,4.1-2.21,7.92-6.31,8.53c-0.37,0.05-0.75,0.08-1.11,0.08c-3.66,0-6.86-2.67-7.41-6.39
		c-0.7-4.7-1.04-9.53-0.99-14.34c0.03-4.14,3.45-7.46,7.56-7.43c4.15,0.04,7.47,3.43,7.44,7.57
		C152.91,190.26,153.19,194.29,153.77,198.21z"/>
	<path d="M111.52,112.37c3.58,2.07,4.81,6.65,2.74,10.24c-1.39,2.41-3.91,3.75-6.5,3.75c-1.27,0-2.56-0.32-3.74-1l-36.36-20.99
		c-3.59-2.08-4.82-6.66-2.75-10.25c2.07-3.59,6.66-4.82,10.25-2.74L111.52,112.37z"/>
	<path d="M114.26,253.87c2.07,3.59,0.84,8.17-2.74,10.25l-36.36,20.99c-1.18,0.68-2.47,1-3.75,1c-2.59,0-5.11-1.34-6.5-3.75
		c-2.07-3.59-0.84-8.17,2.75-10.24l36.36-20.99C107.6,249.05,112.19,250.28,114.26,253.87z"/>
	<path d="M89.2,180.74c4.14,0,7.5,3.36,7.5,7.5s-3.36,7.5-7.5,7.5h-42c-4.15,0-7.5-3.36-7.5-7.5s3.35-7.5,7.5-7.5H89.2z"/>
</g>
<g>
</g>
<g>
</g>
<g>
</g>
<g>
</g>
<g>
</g>
<g>
</g>
<g>
</g>
<g>
</g>
<g>
</g>
<g>
</g>
<g>
</g>
<g>
</g>
<g>
</g>
<g>
</g>
<g>
</g>
</svg>
