<?xml version="1.0" encoding="iso-8859-1"?>
<!-- Generator: Adobe Illustrator 19.1.0, SVG Export Plug-In . SVG Version: 6.00 Build 0)  -->
<svg version="1.1" id="Capa_1" xmlns="http://www.w3.org/2000/svg" xmlns:xlink="http://www.w3.org/1999/xlink" x="0px" y="0px"
	 viewBox="0 0 442.983 442.983" style="enable-background:new 0 0 442.983 442.983;" xml:space="preserve">
<g>
	<g id="XMLID_45_">
		<g>
			<path style="fill:#FFEEFB;" d="M343.891,200.33c12.2,6.02,20.59,18.59,20.59,33.12c0,20.39-16.53,36.92-36.92,36.92
				c-0.14,0-0.27,0-0.41,0l-0.03-0.01c3.78-11.2,5.83-23.19,5.83-35.66v-22.89c4.06-3.41,7.72-7.26,10.91-11.5L343.891,200.33z"/>
			<path style="fill:#4D4D4D;" d="M185.191,120.51c-17.56,22.83-44.59,37.98-75.19,39.62v51.68c-4.05-3.4-7.71-7.25-10.91-11.48
				c-8.86-11.72-14.11-26.33-14.11-42.16V121.7c0-61.69,50.01-111.7,111.7-111.7h49.58c61.7,0,111.71,50.01,111.71,111.7v36.47
				c0,15.82-5.25,30.42-14.11,42.14c-3.19,4.24-6.85,8.09-10.91,11.5v-50.13c-15.12,7.04-31.99,10.97-49.78,10.97
				C242.381,172.65,206.401,151.97,185.191,120.51z"/>
			<path style="fill:#FFEEFB;" d="M332.951,211.81v22.89c0,12.47-2.05,24.46-5.83,35.66c-14.87,44.06-56.55,75.8-105.64,75.8
				c-30.79,0-58.66-12.47-78.82-32.64c-12-12-21.28-26.72-26.83-43.15c-3.78-11.2-5.83-23.2-5.83-35.67v-22.89v-51.68
				c30.6-1.64,57.63-16.79,75.19-39.62c21.21,31.46,57.19,52.14,97.98,52.14c17.79,0,34.66-3.93,49.78-10.97V211.81z"/>
			<path style="fill:#7EE085;" d="M289.001,361.34c3.57,11.12,5.35,22.65,5.35,34.18s-1.78,23.07-5.35,34.18
				c-0.91,2.87-4.24,4.15-6.85,2.65l-46.95-27.11l-0.2-0.04c0.13-0.68,0.2-1.38,0.2-2.1v-15.16c0-0.72-0.07-1.42-0.2-2.1l0.2-0.04
				l46.95-27.11C284.761,357.19,288.091,358.48,289.001,361.34z"/>
			<path style="fill:#7EE085;" d="M235.201,387.94v15.16c0,0.72-0.07,1.42-0.2,2.1c-0.98,5.27-5.6,9.25-11.14,9.25h-4.77
				c-5.55,0-10.17-3.98-11.15-9.25c-0.13-0.68-0.2-1.38-0.2-2.1v-15.16c0-0.72,0.07-1.42,0.2-2.1c0.98-5.27,5.6-9.25,11.15-9.25
				h4.77c5.54,0,10.16,3.98,11.14,9.25C235.131,386.52,235.201,387.22,235.201,387.94z"/>
			<path style="fill:#7EE085;" d="M207.741,385.8l0.2,0.04c-0.13,0.68-0.2,1.38-0.2,2.1v15.16c0,0.72,0.07,1.42,0.2,2.1l-0.2,0.04
				l-46.95,27.11c-2.6,1.5-5.93,0.22-6.85-2.65c-3.56-11.11-5.34-22.65-5.34-34.18s1.78-23.06,5.34-34.18
				c0.92-2.86,4.25-4.15,6.85-2.65L207.741,385.8z"/>
			<path style="fill:#FFEEFB;" d="M115.831,270.37c-0.14,0-0.27,0-0.41,0c-20.39,0-36.92-16.53-36.92-36.92
				c0-14.53,8.39-27.1,20.59-33.12c3.2,4.23,6.86,8.08,10.91,11.48v22.89C110.001,247.17,112.051,259.17,115.831,270.37z"/>
		</g>
		<g>
			<path style="fill:none;stroke:#000000;stroke-width:20;stroke-linejoin:round;stroke-miterlimit:10;" d="M110.001,211.81v-51.68
				c30.6-1.64,57.63-16.79,75.19-39.62c21.21,31.46,57.19,52.14,97.98,52.14c17.79,0,34.66-3.93,49.78-10.97v50.13v22.89
				c0,12.47-2.05,24.46-5.83,35.66c-14.87,44.06-56.55,75.8-105.64,75.8c-30.79,0-58.66-12.47-78.82-32.64
				c-12-12-21.28-26.72-26.83-43.15c-3.78-11.2-5.83-23.2-5.83-35.67V211.81z"/>
			<path style="fill:none;stroke:#000000;stroke-width:20;stroke-linejoin:round;stroke-miterlimit:10;" d="M207.741,405.24
				l-46.95,27.11c-2.6,1.5-5.93,0.22-6.85-2.65c-3.56-11.11-5.34-22.65-5.34-34.18s1.78-23.06,5.34-34.18
				c0.92-2.86,4.25-4.15,6.85-2.65l46.95,27.11"/>
			<path style="fill:none;stroke:#000000;stroke-width:20;stroke-linejoin:round;stroke-miterlimit:10;" d="M235.201,385.8
				l46.95-27.11c2.61-1.5,5.94-0.21,6.85,2.65c3.57,11.12,5.35,22.65,5.35,34.18s-1.78,23.07-5.35,34.18
				c-0.91,2.87-4.24,4.15-6.85,2.65l-46.95-27.11"/>
			<path style="fill:none;stroke:#000000;stroke-width:20;stroke-linejoin:round;stroke-miterlimit:10;" d="M235.001,405.2
				c-0.98,5.27-5.6,9.25-11.14,9.25h-4.77c-5.55,0-10.17-3.98-11.15-9.25c-0.13-0.68-0.2-1.38-0.2-2.1v-15.16
				c0-0.72,0.07-1.42,0.2-2.1c0.98-5.27,5.6-9.25,11.15-9.25h4.77c5.54,0,10.16,3.98,11.14,9.25c0.13,0.68,0.2,1.38,0.2,2.1v15.16
				C235.201,403.82,235.131,404.52,235.001,405.2z"/>
			
				<line style="fill:none;stroke:#000000;stroke-width:20;stroke-linecap:round;stroke-linejoin:round;stroke-miterlimit:10;" x1="170.481" y1="225.59" x2="170.481" y2="208.83"/>
			
				<line style="fill:none;stroke:#000000;stroke-width:20;stroke-linecap:round;stroke-linejoin:round;stroke-miterlimit:10;" x1="272.471" y1="225.59" x2="272.471" y2="208.83"/>
			<path style="fill:none;stroke:#000000;stroke-width:20;stroke-linejoin:round;stroke-miterlimit:10;" d="M332.951,211.81
				c4.06-3.41,7.72-7.26,10.91-11.5c8.86-11.72,14.11-26.32,14.11-42.14V121.7c0-61.69-50.01-111.7-111.71-111.7h-49.58
				c-61.69,0-111.7,50.01-111.7,111.7v36.47c0,15.83,5.25,30.44,14.11,42.16c3.2,4.23,6.86,8.08,10.91,11.48"/>
			<path style="fill:none;stroke:#000000;stroke-width:20;stroke-linecap:round;stroke-linejoin:round;stroke-miterlimit:10;" d="
				M246.931,280.36c-14.06,14.06-36.85,14.06-50.91,0"/>
			<path style="fill:none;stroke:#000000;stroke-width:20;stroke-linecap:round;stroke-linejoin:round;stroke-miterlimit:10;" d="
				M185.191,120.51c0,0-6.59-11.19-7.77-26.94"/>
			<path style="fill:none;stroke:#000000;stroke-width:20;stroke-linejoin:round;stroke-miterlimit:10;" d="M99.091,200.33
				c-12.2,6.02-20.59,18.59-20.59,33.12c0,20.39,16.53,36.92,36.92,36.92c0.14,0,0.27,0,0.41,0"/>
			<path style="fill:none;stroke:#000000;stroke-width:20;stroke-linejoin:round;stroke-miterlimit:10;" d="M327.151,270.37
				c0.14,0,0.27,0,0.41,0c20.39,0,36.92-16.53,36.92-36.92c0-14.53-8.39-27.1-20.59-33.12"/>
		</g>
	</g>
</g>
<g>
</g>
<g>
</g>
<g>
</g>
<g>
</g>
<g>
</g>
<g>
</g>
<g>
</g>
<g>
</g>
<g>
</g>
<g>
</g>
<g>
</g>
<g>
</g>
<g>
</g>
<g>
</g>
<g>
</g>
</svg>
