<?xml version="1.0" encoding="iso-8859-1"?>
<!-- Generator: Adobe Illustrator 19.1.0, SVG Export Plug-In . SVG Version: 6.00 Build 0)  -->
<svg version="1.1" id="Capa_1" xmlns="http://www.w3.org/2000/svg" xmlns:xlink="http://www.w3.org/1999/xlink" x="0px" y="0px"
	 viewBox="0 0 296.345 296.345" style="enable-background:new 0 0 296.345 296.345;" xml:space="preserve">
<g>
	<path style="fill:#B4F5F5;" d="M236.414,79.206c-7.39,0-14.697,1.872-21.136,5.415c-2.374,1.306-5.246,1.323-7.634,0.043
		c-2.388-1.278-3.966-3.679-4.194-6.378c-1.153-13.65-7.351-26.31-17.452-35.644c-10.157-9.387-23.374-14.557-37.216-14.557
		c-28.58,0-52.614,22.308-54.715,50.785c-0.203,2.753-1.811,5.207-4.255,6.492c-2.442,1.284-5.377,1.219-7.761-0.174
		c-6.696-3.914-14.346-5.983-22.12-5.983C35.708,79.206,16,98.913,16,123.135c0,19.539,13.119,36.913,31.904,42.25
		c2.083,0.592,3.838,2.003,4.862,3.911c1.024,1.908,1.232,4.15,0.573,6.214c-1.498,4.7-2.258,9.601-2.258,14.566
		c0,26.461,21.527,47.989,47.987,47.989c17.671,0,33.865-9.674,42.263-25.245c1.395-2.589,4.1-4.203,7.041-4.203
		c2.94,0,5.645,1.613,7.041,4.202c8.399,15.572,24.595,25.246,42.267,25.246c26.459,0,47.985-21.528,47.985-47.989
		c0-4.99-0.77-9.922-2.288-14.66c-0.658-2.055-0.459-4.288,0.553-6.194c1.013-1.905,2.751-3.321,4.822-3.926
		c18.601-5.434,31.592-22.77,31.592-42.161C280.345,98.913,260.638,79.206,236.414,79.206z M124.005,188.172h-47v-6.351
		l28.738-45.649H77.005v-12h47v6.785l-28.584,46.215h28.584V188.172z M124.005,156.172v-7.174l29.371-45.826h-29.371v-11h47v5.962
		l-27.952,46.038h28.952v12H124.005z M219.005,188.172h-47v-6.351l28.523-45.649h-29.523v-12h48v6.785l-28.799,46.215h28.799
		V188.172z"/>
	<path d="M296.345,123.135c0-33.045-26.885-59.93-59.931-59.93c-6.386,0-12.732,1.027-18.761,3.011
		c-3.265-13.481-10.442-25.758-20.796-35.325c-13.123-12.127-30.196-18.806-48.075-18.806c-33.114,0-61.503,23.19-68.957,54.52
		c-6.364-2.24-13.095-3.4-19.893-3.4C26.885,63.206,0,90.09,0,123.135c0,24.032,14.55,45.663,36.196,55.025
		c-0.741,3.915-1.114,7.9-1.114,11.916c0,35.284,28.705,63.989,63.987,63.989c19.302,0,37.28-8.653,49.305-23.193
		c12.024,14.54,30.005,23.193,49.307,23.193c35.281,0,63.985-28.705,63.985-63.989c0-4.068-0.385-8.108-1.146-12.079
		C281.944,168.545,296.345,146.978,296.345,123.135z M248.753,165.296c-2.071,0.605-3.809,2.021-4.822,3.926
		c-1.012,1.906-1.211,4.14-0.553,6.194c1.519,4.738,2.288,9.67,2.288,14.66c0,26.461-21.526,47.989-47.985,47.989
		c-17.672,0-33.867-9.674-42.267-25.246c-1.396-2.589-4.101-4.202-7.041-4.202c-2.941,0-5.646,1.614-7.041,4.203
		c-8.397,15.571-24.592,25.245-42.263,25.245c-26.46,0-47.987-21.528-47.987-47.989c0-4.966,0.76-9.866,2.258-14.566
		c0.658-2.063,0.451-4.306-0.573-6.214c-1.024-1.908-2.779-3.319-4.862-3.911C29.119,160.048,16,142.674,16,123.135
		c0-24.223,19.708-43.93,43.932-43.93c7.774,0,15.424,2.069,22.12,5.983c2.384,1.393,5.318,1.458,7.761,0.174
		c2.443-1.285,4.052-3.739,4.255-6.492c2.101-28.478,26.135-50.785,54.715-50.785c13.842,0,27.059,5.17,37.216,14.557
		c10.102,9.334,16.299,21.993,17.452,35.644c0.229,2.699,1.807,5.1,4.194,6.378c2.388,1.28,5.26,1.263,7.634-0.043
		c6.439-3.543,13.746-5.415,21.136-5.415c24.224,0,43.931,19.707,43.931,43.93C280.345,142.526,267.354,159.863,248.753,165.296z"/>
	<polygon points="124.005,130.958 124.005,124.172 77.005,124.172 77.005,136.172 105.743,136.172 77.005,181.822 77.005,188.172 
		124.005,188.172 124.005,177.172 95.421,177.172 	"/>
	<polygon points="219.005,130.958 219.005,124.172 171.005,124.172 171.005,136.172 200.528,136.172 172.005,181.822 
		172.005,188.172 219.005,188.172 219.005,177.172 190.206,177.172 	"/>
	<polygon points="172.005,144.172 143.053,144.172 171.005,98.134 171.005,92.172 124.005,92.172 124.005,103.172 153.376,103.172 
		124.005,148.999 124.005,156.172 172.005,156.172 	"/>
	<path style="fill:#B4F5F5;" d="M24.077,252.106c-4.454,0-8.077,3.623-8.077,8.076c0,4.454,3.623,8.077,8.077,8.077
		c4.453,0,8.076-3.623,8.076-8.077C32.153,255.729,28.53,252.106,24.077,252.106z"/>
	<path d="M24.077,236.106C10.801,236.106,0,246.907,0,260.182c0,13.276,10.801,24.077,24.077,24.077
		c13.275,0,24.076-10.801,24.076-24.077C48.153,246.907,37.353,236.106,24.077,236.106z M24.077,268.259
		c-4.454,0-8.077-3.623-8.077-8.077c0-4.453,3.623-8.076,8.077-8.076c4.453,0,8.076,3.623,8.076,8.076
		C32.153,264.636,28.53,268.259,24.077,268.259z"/>
</g>
<g>
</g>
<g>
</g>
<g>
</g>
<g>
</g>
<g>
</g>
<g>
</g>
<g>
</g>
<g>
</g>
<g>
</g>
<g>
</g>
<g>
</g>
<g>
</g>
<g>
</g>
<g>
</g>
<g>
</g>
</svg>
