<?xml version="1.0" encoding="iso-8859-1"?>
<!-- Generator: Adobe Illustrator 19.0.0, SVG Export Plug-In . SVG Version: 6.00 Build 0)  -->
<svg version="1.1" id="Capa_1" xmlns="http://www.w3.org/2000/svg" xmlns:xlink="http://www.w3.org/1999/xlink" x="0px" y="0px"
	 viewBox="0 0 512 512" style="enable-background:new 0 0 512 512;" xml:space="preserve">
<path style="fill:#FBDF97;" d="M420.513,431.572c-15.107,0-27.873-10.833-30.352-25.759c-1.351-8.118,0.54-16.279,5.325-22.977
	c4.786-6.699,11.891-11.132,20.009-12.483c1.685-0.28,3.397-0.423,5.092-0.423c15.114,0,27.884,10.832,30.366,25.757
	c1.356,8.117-0.534,16.277-5.321,22.977c-4.788,6.699-11.894,11.131-20.013,12.483C423.93,431.429,422.212,431.572,420.513,431.572z
	"/>
<path style="fill:#FFABCD;" d="M288.624,48.316l142.493-23.74l73.152,439.11l-142.502,23.74L288.624,48.316z M420.585,373.947
	c-1.475,0-2.967,0.124-4.433,0.367c-7.059,1.175-13.239,5.03-17.4,10.855c-4.161,5.826-5.806,12.923-4.631,19.984
	c2.157,12.98,13.257,22.4,26.392,22.401c0,0,0.001,0,0.002,0c1.478,0,2.973-0.124,4.444-0.37
	c7.061-1.175,13.242-5.031,17.405-10.856c4.162-5.827,5.807-12.923,4.627-19.982C444.833,383.367,433.727,373.947,420.585,373.947z
	 M381.664,330.36l52.869-8.807l-40.17-241.146l-52.869,8.807L381.664,330.36z"/>
<g>
	
		<rect x="357.199" y="79.136" transform="matrix(0.9864 -0.1643 0.1643 0.9864 -28.4715 66.5424)" style="fill:#FBDF97;" width="61.63" height="252.493"/>
	<rect x="189.891" y="86.98" style="fill:#FBDF97;" width="61.631" height="252.495"/>
	<path style="fill:#FBDF97;" d="M220.711,442.107c-16.994,0-30.819-13.826-30.819-30.82s13.825-30.82,30.819-30.82
		c16.989,0,30.81,13.826,30.81,30.82C251.521,428.281,237.7,442.107,220.711,442.107z"/>
</g>
<path style="fill:#FBC640;" d="M148.479,487.122V41.965h144.464v445.157H148.479z M220.711,384.482
	c-14.78,0-26.804,12.025-26.804,26.805s12.025,26.805,26.804,26.805c14.775,0,26.795-12.025,26.795-26.805
	C247.506,396.506,235.485,384.482,220.711,384.482z M247.506,335.461V90.997h-53.599v244.464H247.506z"/>
<g>
	<path style="fill:#FBDF97;" d="M80.263,442.107c-16.994,0-30.82-13.826-30.82-30.82s13.826-30.82,30.82-30.82
		s30.82,13.826,30.82,30.82C111.083,428.281,97.258,442.107,80.263,442.107z"/>
	<rect x="49.443" y="86.98" style="fill:#FBDF97;" width="61.641" height="252.495"/>
</g>
<path style="fill:#30C9B0;" d="M8.031,487.122V41.965h144.464v445.157H8.031z M80.263,384.482
	c-14.781,0-26.805,12.025-26.805,26.805s12.025,26.805,26.805,26.805s26.805-12.025,26.805-26.805
	C107.068,396.506,95.044,384.482,80.263,384.482z M107.068,335.461V90.997H53.459v244.464H107.068z"/>
<path d="M446.743,118.966c-12.919,0-12.941,20.078,0,20.078C459.663,139.044,459.684,118.966,446.743,118.966z"/>
<path d="M10.039,495.154h140.448h140.448c5.544,0,10.039-4.495,10.039-10.039V171.337l52.541,315.427
	c0.438,2.626,1.901,4.971,4.067,6.519c1.715,1.225,3.757,1.87,5.836,1.87c0.549,0,1.101-0.045,1.65-0.137l138.541-23.08
	c5.468-0.912,9.164-6.084,8.253-11.553l-49.995-300.1c-0.912-5.469-6.072-9.165-11.553-8.253c-5.468,0.912-9.164,6.084-8.253,11.552
	l48.346,290.198l-118.735,19.781L302.487,58.22l118.726-19.781l9.918,59.535c0.911,5.468,6.069,9.159,11.553,8.253
	c5.468-0.912,9.164-6.084,8.253-11.552l-11.567-69.438c-0.438-2.626-1.901-4.971-4.068-6.519s-4.857-2.171-7.485-1.735
	L299.283,38.397c-1.801-2.692-4.867-4.464-8.348-4.464H150.487H10.039C4.496,33.933,0,38.427,0,43.972v441.141
	C0,490.659,4.496,495.154,10.039,495.154z M280.896,475.075h-120.37V54.012h120.37V475.075z M20.078,54.012h120.37v421.063H20.078
	V54.012z"/>
<path d="M109.076,78.95H51.451c-5.544,0-10.039,4.495-10.039,10.039v248.48c0,5.545,4.496,10.039,10.039,10.039h57.625
	c5.544,0,10.039-4.495,10.039-10.039V88.989C119.115,83.444,114.62,78.95,109.076,78.95z M99.036,327.429H61.49V99.028h37.547
	V327.429z"/>
<path d="M80.263,372.435c-21.424,0-38.852,17.429-38.852,38.852c0,21.423,17.428,38.852,38.852,38.852s38.852-17.429,38.852-38.852
	C119.115,389.864,101.687,372.435,80.263,372.435z M80.263,430.06c-10.352,0-18.773-8.422-18.773-18.773
	c0-10.352,8.422-18.773,18.773-18.773s18.773,8.422,18.773,18.773C99.036,421.638,90.616,430.06,80.263,430.06z"/>
<path d="M191.899,347.508h57.615c5.544,0,10.039-4.495,10.039-10.039V88.989c0-5.545-4.496-10.039-10.039-10.039h-57.615
	c-5.544,0-10.039,4.495-10.039,10.039v248.48C181.86,343.013,186.355,347.508,191.899,347.508z M201.938,99.028h37.536v228.401
	h-37.536V99.028z"/>
<path d="M220.711,450.138c21.418,0,38.842-17.429,38.842-38.852c0-21.423-17.424-38.852-38.842-38.852
	c-21.423,0-38.851,17.429-38.851,38.852C181.86,432.709,199.289,450.138,220.711,450.138z M220.711,392.513
	c10.346,0,18.763,8.422,18.763,18.773s-8.418,18.773-18.763,18.773c-10.351,0-18.772-8.422-18.772-18.773
	C201.938,400.935,210.36,392.513,220.711,392.513z"/>
<path d="M405.918,76.447c-0.438-2.626-1.901-4.971-4.067-6.519c-2.167-1.548-4.858-2.172-7.486-1.735l-56.831,9.467
	c-5.468,0.912-9.164,6.084-8.253,11.552l40.829,245.106c0.438,2.626,1.901,4.971,4.067,6.519c1.715,1.225,3.757,1.87,5.836,1.87
	c0.549,0,1.101-0.045,1.65-0.137l56.831-9.467c5.468-0.912,9.164-6.084,8.253-11.552L405.918,76.447z M388.266,321.118
	l-37.53-225.301l37.026-6.168l37.53,225.301L388.266,321.118z"/>
<path d="M414.176,362.431c-10.235,1.703-19.194,7.291-25.226,15.737c-6.032,8.443-8.415,18.729-6.712,28.961
	c1.702,10.24,7.29,19.202,15.736,25.235c6.662,4.758,14.468,7.244,22.489,7.243c2.149,0,4.313-0.179,6.473-0.539
	c10.235-1.703,19.195-7.291,25.229-15.736c6.036-8.446,8.418-18.735,6.708-28.97c-1.704-10.231-7.292-19.189-15.735-25.22
	C434.694,363.112,424.407,360.729,414.176,362.431z M435.829,411.661c-2.914,4.08-7.243,6.78-12.194,7.604
	c-4.942,0.825-9.913-0.324-13.992-3.239c-4.079-2.913-6.778-7.242-7.601-12.191c-0.822-4.945,0.329-9.917,3.244-13.998
	c2.914-4.079,7.241-6.779,12.183-7.602c1.042-0.173,2.085-0.259,3.12-0.259c3.88,0,7.656,1.203,10.877,3.504
	c4.079,2.913,6.778,7.24,7.601,12.183c0,0.002,0,0.004,0.001,0.007C439.896,402.613,438.744,407.581,435.829,411.661z"/>
<g>
</g>
<g>
</g>
<g>
</g>
<g>
</g>
<g>
</g>
<g>
</g>
<g>
</g>
<g>
</g>
<g>
</g>
<g>
</g>
<g>
</g>
<g>
</g>
<g>
</g>
<g>
</g>
<g>
</g>
</svg>
