<?xml version="1.0" encoding="iso-8859-1"?>
<!-- Generator: Adobe Illustrator 19.0.0, SVG Export Plug-In . SVG Version: 6.00 Build 0)  -->
<svg version="1.1" id="Layer_1" xmlns="http://www.w3.org/2000/svg" xmlns:xlink="http://www.w3.org/1999/xlink" x="0px" y="0px"
	 viewBox="0 0 502 502" style="enable-background:new 0 0 502 502;" xml:space="preserve">
<g>
	<g>
		<path style="fill:#C7EBFF;" d="M28,10v482h446V10H28z M137.5,429.5c-23.472,0-42.5-19.028-42.5-42.5s19.028-42.5,42.5-42.5
			S180,363.528,180,387S160.972,429.5,137.5,429.5z M137.5,294.5c-23.472,0-42.5-19.028-42.5-42.5s19.028-42.5,42.5-42.5
			S180,228.528,180,252S160.972,294.5,137.5,294.5z M137.5,157.5c-23.472,0-42.5-19.028-42.5-42.5s19.028-42.5,42.5-42.5
			S180,91.528,180,115S160.972,157.5,137.5,157.5z"/>
		<circle style="fill:#50A5DC;" cx="137.5" cy="115" r="42.5"/>
		<circle style="fill:#50A5DC;" cx="137.5" cy="252" r="42.5"/>
		<circle style="fill:#50A5DC;" cx="137.5" cy="387" r="42.5"/>
	</g>
	<g>
		<path d="M474,0H28c-5.523,0-10,4.477-10,10v482c0,5.523,4.477,10,10,10h446c5.523,0,10-4.477,10-10V10C484,4.477,479.523,0,474,0z
			 M464,482H38V20h426V482z"/>
		<path d="M137.5,167.5c28.949,0,52.5-23.551,52.5-52.5s-23.551-52.5-52.5-52.5S85,86.051,85,115S108.551,167.5,137.5,167.5z
			 M137.5,82.5c17.92,0,32.5,14.58,32.5,32.5s-14.58,32.5-32.5,32.5S105,132.92,105,115S119.58,82.5,137.5,82.5z"/>
		<path d="M226,125h181c5.523,0,10-4.477,10-10s-4.477-10-10-10H226c-5.523,0-10,4.477-10,10S220.477,125,226,125z"/>
		<path d="M407,242h-37c-5.523,0-10,4.477-10,10c0,5.523,4.477,10,10,10h37c5.523,0,10-4.477,10-10S412.523,242,407,242z"/>
		<path d="M137.5,304.5c25.529,0,46.849-18.319,51.533-42.5H332c5.523,0,10-4.477,10-10s-4.477-10-10-10H189.033
			c-4.684-24.181-26.004-42.5-51.533-42.5c-28.949,0-52.5,23.551-52.5,52.5S108.551,304.5,137.5,304.5z M137.5,219.5
			c17.92,0,32.5,14.58,32.5,32.5s-14.58,32.5-32.5,32.5S105,269.92,105,252S119.58,219.5,137.5,219.5z"/>
		<path d="M137.5,439.5c25.529,0,46.849-18.319,51.533-42.5H407c5.523,0,10-4.477,10-10s-4.477-10-10-10H189.033
			c-4.684-24.181-26.004-42.5-51.533-42.5c-28.949,0-52.5,23.551-52.5,52.5S108.551,439.5,137.5,439.5z M137.5,354.5
			c17.92,0,32.5,14.58,32.5,32.5s-14.58,32.5-32.5,32.5S105,404.92,105,387S119.58,354.5,137.5,354.5z"/>
	</g>
</g>
<g>
</g>
<g>
</g>
<g>
</g>
<g>
</g>
<g>
</g>
<g>
</g>
<g>
</g>
<g>
</g>
<g>
</g>
<g>
</g>
<g>
</g>
<g>
</g>
<g>
</g>
<g>
</g>
<g>
</g>
</svg>
