<?xml version="1.0" encoding="iso-8859-1"?>
<!-- Generator: Adobe Illustrator 19.0.0, SVG Export Plug-In . SVG Version: 6.00 Build 0)  -->
<svg version="1.1" id="Capa_1" xmlns="http://www.w3.org/2000/svg" xmlns:xlink="http://www.w3.org/1999/xlink" x="0px" y="0px"
	 viewBox="0 0 302 302" style="enable-background:new 0 0 302 302;" xml:space="preserve">
<path style="fill:#F8B72B;" d="M181.6,218l70.4,70.4c10,10,26,10,36,0l0,0c10-10,10-26,0-36l-70-70.8L181.6,218z"/>
<circle style="fill:#01A9BB;" cx="120.8" cy="120.8" r="114.8"/>
<circle style="fill:#F0E9E0;" cx="120.8" cy="120.8" r="74"/>
<path style="fill:#F7C869;" d="M273.2,288.4L202.8,218l25.6-25.6L218,182l-36,36l70.4,70.4c7.6,7.6,19.2,9.2,28.4,5.2
	C278,292.4,275.6,290.8,273.2,288.4z"/>
<path style="fill:#27BDC1;" d="M26.8,120.8c0-60,46-109.2,104.4-114.4C127.6,6,124.4,6,120.8,6C57.2,6,6,57.6,6,120.8
	c0,63.6,51.6,114.8,114.8,114.8c3.6,0,7.2-0.4,10.4-0.4C72.8,229.6,26.8,180.4,26.8,120.8z"/>
<path style="fill:#F7F7F7;" d="M67.6,120.8c0-37.2,27.6-68.4,63.6-73.2c-3.6-0.4-6.8-0.8-10.4-0.8c-40.8,0-74,33.2-74,74
	s32.8,74,74,74c3.6,0,7.2-0.4,10.4-0.8C95.2,188.8,67.6,158,67.6,120.8z"/>
<g>
	<path style="fill:#231F20;" d="M292.8,248l-67.2-67.2c10.4-17.6,16-38.4,16-60C241.6,54,187.2,0,120.8,0C54,0,0,54.4,0,120.8
		c0,66.8,54.4,120.8,120.8,120.8c22,0,42.4-6,60-16l67.2,67.2c6,6,14.4,9.2,22.4,9.2s16.4-3.2,22.4-9.2s9.2-14,9.2-22.4
		S298.8,254,292.8,248z M12,120.8C12,60.8,60.8,12,120.8,12s108.8,48.8,108.8,108.8s-48.8,108.8-108.8,108.8
		C60.8,229.2,12,180.4,12,120.8z M218.8,191.2l54,54l-28,27.2l-53.6-53.6C201.6,211.2,211.2,201.6,218.8,191.2z M284,284
		c-7.2,7.2-20,7.2-27.6,0l-3.2-3.2l28-27.2l2.8,2.8c3.6,3.6,5.6,8.4,5.6,13.6C289.6,275.6,287.6,280.4,284,284z"/>
	<path style="fill:#231F20;" d="M120.8,40.4c-44.4,0-80.4,36-80.4,80.4s36,80.4,80.4,80.4s80.4-36,80.4-80.4
		C200.8,76.4,164.8,40.4,120.8,40.4z M120.8,188.8c-37.6,0-68-30.4-68-68s30.4-68,68-68s68,30.4,68,68
		C188.8,158,158,188.8,120.8,188.8z"/>
</g>
<g>
</g>
<g>
</g>
<g>
</g>
<g>
</g>
<g>
</g>
<g>
</g>
<g>
</g>
<g>
</g>
<g>
</g>
<g>
</g>
<g>
</g>
<g>
</g>
<g>
</g>
<g>
</g>
<g>
</g>
</svg>
