<?xml version="1.0" standalone="no"?><!DOCTYPE svg PUBLIC "-//W3C//DTD SVG 1.1//EN" "http://www.w3.org/Graphics/SVG/1.1/DTD/svg11.dtd"><svg class="icon" width="200px" height="200.00px" viewBox="0 0 1024 1024" version="1.1" xmlns="http://www.w3.org/2000/svg"><path d="M810 981.3H214c-70.9 0-128.7-57.7-128.7-128.7V576c0-23.6 19.1-42.7 42.7-42.7s42.7 19.1 42.7 42.7v276.7c0 23.9 19.4 43.3 43.3 43.3h596c23.9 0 43.3-19.4 43.3-43.3V576c0-23.6 19.1-42.7 42.7-42.7s42.7 19.1 42.7 42.7v276.7c0 70.9-57.8 128.6-128.7 128.6z" fill="#5F6379" /><path d="M768 512c-46.5 0-91.3-15.3-128-42.9-36.7 27.6-81.5 42.9-128 42.9s-91.3-15.3-128-42.9c-36.7 27.6-81.5 42.9-128 42.9-117.6 0-213.3-95.7-213.3-213.3S138.4 85.3 256 85.3h512c117.6 0 213.3 95.7 213.3 213.3S885.6 512 768 512zM640 346.7l32 36.4c24.4 27.7 59.4 43.6 96 43.6 70.6 0 128-57.4 128-128s-57.4-128-128-128H256c-70.6 0-128 57.4-128 128s57.4 128 128 128c36.6 0 71.6-15.9 96-43.6l32-36.4 32 36.4c24.4 27.7 59.4 43.6 96 43.6s71.6-15.9 96-43.6l32-36.4z" fill="#3688FF" /><path d="M384 425.3c-23.6 0-42.7-19.1-42.7-42.7v-41.3c0-23.6 19.1-42.7 42.7-42.7s42.7 19.1 42.7 42.7v41.3c0 23.6-19.1 42.7-42.7 42.7zM640 425.3c-23.6 0-42.7-19.1-42.7-42.7v-41.3c0-23.6 19.1-42.7 42.7-42.7s42.7 19.1 42.7 42.7v41.3c0 23.6-19.1 42.7-42.7 42.7z" fill="#3688FF" /><path d="M725.3 789.3c-23.6 0-42.7-19.1-42.7-42.7v-64c0-23.6 19.1-42.7 42.7-42.7S768 659 768 682.6v64c0 23.6-19.1 42.7-42.7 42.7z" fill="#5F6379" /></svg>