<?xml version="1.0" encoding="UTF-8" standalone="no"?>
<!DOCTYPE svg PUBLIC "-//W3C//DTD SVG 1.1//EN" "http://www.w3.org/Graphics/SVG/1.1/DTD/svg11.dtd">
<svg width="100%" height="100%" viewBox="0 0 1024 1024" version="1.1" xmlns="http://www.w3.org/2000/svg" xmlns:xlink="http://www.w3.org/1999/xlink" xml:space="preserve" xmlns:serif="http://www.serif.com/" style="fill-rule:evenodd;clip-rule:evenodd;stroke-linejoin:round;stroke-miterlimit:2;">
    <path d="M747.872,944.928C747.872,944.928 758.592,880.544 692.48,801.92C756.832,621.408 765.76,457.024 765.76,457.024C765.76,457.024 898.016,487.424 898.016,617.856C897.984,839.921 749.65,943.692 747.872,944.928Z" style="fill:rgb(231,42,36);"/>
    <path d="M383.328,866.496C383.328,866.496 294.752,582.24 294.752,464.32C294.752,411.264 300.736,364.064 310.048,321.216L713.568,321.216C722.944,364.096 728.96,411.328 728.96,464.352C728.96,580.48 640.64,866.496 640.64,866.496L383.328,866.496Z" style="fill:rgb(203,203,203);"/>
    <path d="M511.68,386.208C466.304,386.208 429.504,423.008 429.504,468.416C429.504,513.792 466.304,550.624 511.68,550.624C557.088,550.624 593.888,513.824 593.888,468.416C593.92,423.035 557.132,386.252 511.68,386.208Z" style="fill:rgb(42,93,138);"/>
    <path d="M494.016,19.072L494.016,-92.864L526.016,-92.864L526.016,16.224C562.592,42.848 661.568,127.52 706.336,290.624L317.216,290.624C360.454,132.094 454.576,48.356 494.016,19.072Z" style="fill:rgb(238,53,61);"/>
    <path d="M276.128,944.928C276.128,944.928 126.016,841.248 126.016,617.856C126.016,487.424 258.272,457.024 258.272,457.024C258.272,457.024 267.2,621.408 331.52,801.92C266.074,879.745 275.91,943.567 276.128,944.928Z" style="fill:rgb(231,42,36);"/>
    <path d="M566.112,961.44L539.296,934.624L510.72,1024L476.736,934.624L453.504,981.056L419.52,897.056L603.584,897.056L566.112,961.44Z" style="fill:rgb(247,209,0);"/>
</svg>
