<?xml version="1.0" standalone="no"?><!DOCTYPE svg PUBLIC "-//W3C//DTD SVG 1.1//EN" "http://www.w3.org/Graphics/SVG/1.1/DTD/svg11.dtd"><svg class="icon" width="200px" height="179.33px" viewBox="0 0 1142 1024" version="1.1" xmlns="http://www.w3.org/2000/svg"><path d="M991.179487 353.148718H241.558974v538.25641c0 36.758974 30.194872 65.641026 65.641026 65.641026h682.666667c36.758974 0 65.641026-28.882051 65.641025-65.641026v-472.615384c1.312821-35.446154-28.882051-65.641026-64.328205-65.641026" fill="#F3EAED" /><path d="M938.666667 812.635897H905.846154h6.564102l-5.251282-5.251282c-1.312821 1.312821-1.312821 3.938462-1.31282 5.251282h6.564102l-5.251282-5.251282 5.251282 5.251282v-6.564102c-1.312821 0-3.938462 1.312821-5.251282 1.31282l5.251282 5.251282v-6.564102h-761.435897v6.564102l5.251282-5.251282c-1.312821-1.312821-2.625641-1.312821-5.251282-1.31282v6.564102l5.251282-5.251282-5.251282 5.251282h6.564103c0-1.312821-1.312821-3.938462-1.312821-5.251282l-5.251282 5.251282h6.564103v-551.384615h-6.564103l5.251282 5.251282c1.312821-1.312821 1.312821-2.625641 1.312821-5.251282h-6.564103l5.251282 5.251282-5.251282-5.251282v6.564103c1.312821 0 3.938462-1.312821 5.251282-1.312821l-5.251282-5.251282v6.564103h761.435897v-6.564103l-5.251282 5.251282c1.312821 1.312821 2.625641 1.312821 5.251282 1.312821v-6.564103l-5.251282 5.251282 5.251282-5.251282H905.846154c0 1.312821 1.312821 3.938462 1.31282 5.251282l5.251282-5.251282H905.846154v551.384615h65.641025v-551.384615c0-15.753846-6.564103-31.507692-17.066666-42.010256-10.502564-10.502564-24.94359-17.066667-42.010257-17.066667h-761.435897c-15.753846 0-31.507692 6.564103-42.010256 17.066667-10.502564 10.502564-17.066667 26.25641-17.066667 42.010256v551.384615c0 15.753846 6.564103 31.507692 17.066667 42.010257 10.502564 10.502564 24.94359 17.066667 42.010256 17.066667h761.435897c15.753846 0 31.507692-6.564103 42.010257-17.066667 10.502564-10.502564 17.066667-24.94359 17.066666-42.010257h-32.820512z" fill="#677BAF" /><path d="M697.107692 190.358974l-17.066666 10.502564c2.625641 5.251282 3.938462 9.189744 3.938461 10.502565v1.31282l-1.31282 1.312821c-1.312821 1.312821-5.251282 1.312821-10.502564 1.31282H389.907692c-6.564103 0-10.502564-1.312821-11.815384-2.625641l-1.312821-1.31282V210.051282c0-1.312821 1.312821-5.251282 3.938462-10.502564l11.815384-19.692308c5.251282-7.876923 15.753846-18.379487 27.569231-24.943589 11.815385-6.564103 24.94359-10.502564 35.446154-10.502565h150.974359c9.189744 0 23.630769 3.938462 35.446154 10.502565 11.815385 6.564103 22.317949 15.753846 27.569231 24.943589l11.815384 19.692308 15.753846-9.189744 17.066667-10.502564-11.815385-19.692307c-9.189744-15.753846-24.94359-28.882051-42.010256-39.384616C643.282051 111.589744 624.902564 105.025641 605.210256 105.025641H455.548718c-19.692308 0-38.071795 6.564103-55.138462 15.753846-17.066667 9.189744-31.507692 22.317949-42.010256 39.384616l-11.815385 19.692307c-5.251282 9.189744-9.189744 19.692308-9.189743 30.194872 0 6.564103 1.312821 13.128205 3.938461 18.379487 3.938462 9.189744 11.815385 15.753846 19.692308 19.692308 7.876923 3.938462 18.379487 6.564103 27.569231 6.564102h282.25641c13.128205 0 26.25641-2.625641 35.446154-10.502564 5.251282-3.938462 9.189744-9.189744 11.815385-14.441025 2.625641-5.251282 3.938462-11.815385 3.938461-18.379487 0-10.502564-3.938462-21.005128-9.189744-30.194872l-15.753846 9.189743zM124.717949 514.625641h813.948718v-26.25641h-813.948718" fill="#677BAF" /><path d="M466.051282 458.174359h131.282051v87.958974h-131.282051z" fill="#677BAF" /></svg>