<?xml version="1.0" standalone="no"?><!DOCTYPE svg PUBLIC "-//W3C//DTD SVG 1.1//EN" "http://www.w3.org/Graphics/SVG/1.1/DTD/svg11.dtd"><svg class="icon" width="200px" height="179.33px" viewBox="0 0 1142 1024" version="1.1" xmlns="http://www.w3.org/2000/svg"><path d="M938.666667 336.082051H294.071795v538.256411c0 36.758974 28.882051 65.641026 65.641026 65.641025h577.641025c36.758974 0 65.641026-28.882051 65.641026-65.641025v-472.615385c1.312821-36.758974-28.882051-65.641026-64.328205-65.641026" fill="#F3EAED" /><path d="M867.774359 854.646154h-656.410256c-32.820513 0-59.076923-26.25641-59.076924-59.076923v-551.384616c0-32.820513 26.25641-59.076923 59.076924-59.076923h656.410256c32.820513 0 59.076923 26.25641 59.076923 59.076923v551.384616c0 31.507692-26.25641 59.076923-59.076923 59.076923z m-649.846154-65.641026h643.282051v-538.25641h-643.282051v538.25641z" fill="#677BAF" /><path d="M347.897436 119.466667h39.384615v204.8h-39.384615zM519.876923 119.466667h39.384615v204.8h-39.384615zM691.85641 119.466667h39.384616v204.8h-39.384616zM328.205128 437.169231h422.728205v26.25641H328.205128zM328.205128 546.133333h422.728205v26.256411H328.205128zM328.205128 655.097436h422.728205v26.25641H328.205128z" fill="#677BAF" /></svg>