<?xml version="1.0" standalone="no"?><!DOCTYPE svg PUBLIC "-//W3C//DTD SVG 1.1//EN" "http://www.w3.org/Graphics/SVG/1.1/DTD/svg11.dtd"><svg class="icon" width="200px" height="179.33px" viewBox="0 0 1142 1024" version="1.1" xmlns="http://www.w3.org/2000/svg"><path d="M592.082051 192.984615c-86.646154 0-171.979487 32.820513-237.620513 98.461539-131.282051 131.282051-131.282051 345.271795 0 476.553846 65.641026 65.641026 152.287179 98.461538 237.620513 98.461538s171.979487-32.820513 237.620513-98.461538c131.282051-131.282051 131.282051-345.271795 0-476.553846-64.328205-65.641026-150.974359-98.461538-237.620513-98.461539" fill="#F3EAED" /><path d="M500.184615 807.384615c-94.523077 0-189.046154-35.446154-261.251282-107.651282-144.410256-144.410256-144.410256-378.092308 0-522.502564 144.410256-144.410256 378.092308-144.410256 522.502564 0 144.410256 144.410256 144.410256 378.092308 0 522.502564-70.892308 72.205128-165.415385 107.651282-261.251282 107.651282z m0-672.164102c-77.45641 0-156.225641 30.194872-215.302564 89.271795-118.153846 118.153846-118.153846 311.138462 0 429.292307 118.153846 118.153846 311.138462 118.153846 429.292308 0 118.153846-118.153846 118.153846-311.138462 0-429.292307-57.764103-60.389744-135.220513-89.271795-213.989744-89.271795z" fill="#677BAF" /><path d="M325.579487 400.410256c-17.066667 0-31.507692-5.251282-43.323077-15.753846-15.753846-15.753846-19.692308-38.071795-13.128205-65.641025 6.564103-24.94359 21.005128-49.887179 42.010257-70.892308 21.005128-21.005128 45.948718-35.446154 70.892307-42.010256 26.25641-6.564103 49.887179-1.312821 65.641026 13.128205 15.753846 15.753846 19.692308 38.071795 13.128205 65.641025-6.564103 24.94359-21.005128 49.887179-42.010256 70.892308-30.194872 28.882051-64.328205 44.635897-93.210257 44.635897z m77.45641-170.666666c-6.564103 0-11.815385 1.312821-15.753846 2.625641-19.692308 3.938462-40.697436 17.066667-57.764102 34.133333-18.379487 18.379487-30.194872 38.071795-35.446154 57.764103-2.625641 10.502564-5.251282 28.882051 6.564102 40.697436 19.692308 19.692308 64.328205 6.564103 98.461539-28.882052 18.379487-18.379487 30.194872-38.071795 35.446154-57.764102 2.625641-10.502564 5.251282-28.882051-6.564103-40.697436-6.564103-5.251282-15.753846-7.876923-24.94359-7.876923zM797.735385 706.730667l24.142769 24.142769-27.858051 27.831795-24.129641-24.129641zM853.490872 744.264205l135.53559 135.522462-46.408206 46.421333-135.535589-135.53559z" fill="#677BAF" /></svg>