<?xml version="1.0" standalone="no"?><!DOCTYPE svg PUBLIC "-//W3C//DTD SVG 1.1//EN" "http://www.w3.org/Graphics/SVG/1.1/DTD/svg11.dtd"><svg t="1518215484510" class="icon" style="" viewBox="0 0 1142 1024" version="1.1" xmlns="http://www.w3.org/2000/svg" p-id="785" xmlns:xlink="http://www.w3.org/1999/xlink" width="223.046875" height="200"><defs><style type="text/css"></style></defs><path d="M630.153846 182.482051H408.287179c-36.758974 0-65.641026 30.194872-65.641025 65.641026v669.538461c0 36.758974 28.882051 65.641026 65.641025 65.641026h525.128206c36.758974 0 65.641026-30.194872 65.641025-65.641026V552.697436c0-36.758974-21.005128-86.646154-45.948718-111.589744L741.74359 229.74359c-24.94359-26.25641-76.14359-47.261538-111.589744-47.261539" fill="#F3EAED" p-id="786"></path><path d="M815.261538 899.282051h-525.128205c-53.825641 0-98.461538-44.635897-98.461538-98.461538V131.282051c0-53.825641 44.635897-98.461538 98.461538-98.461538H512c44.635897 0 103.712821 23.630769 135.220513 56.451282l211.364102 211.364102c31.507692 31.507692 56.451282 90.584615 56.451282 135.220513V800.820513c-1.312821 53.825641-44.635897 98.461538-99.774359 98.461538zM257.312821 97.148718v735.179487h590.76923V434.54359c0-27.569231-17.066667-69.579487-36.758974-89.271795l-210.051282-211.364103c-19.692308-19.692308-61.702564-36.758974-89.271795-36.758974H257.312821z" fill="#677BAF" p-id="787"></path><path d="M880.902564 382.030769H564.512821V64.328205h26.25641v291.446154h290.133333zM395.158974 489.682051h317.702564v26.256411H395.158974zM395.158974 593.394872h317.702564v26.25641H395.158974zM395.158974 695.794872h317.702564v26.25641H395.158974z" fill="#677BAF" p-id="788"></path></svg>